<svg xmlns="http://www.w3.org/2000/svg" viewBox="0 0 1240 800" font-family="Georgia, 'Apple SD Gothic Neo', 'Noto Serif KR', serif">
  <!-- Tufte-style 설계 시각화(최종): 잉크 최소 · 헤어라인 · 단일 액센트(#2563EB) · 직접 라벨 -->
  <!-- v2 (2026-07-06 최종): 상단 navbar 제거 — 홈이 곧 내비게이션, 콘텐츠 페이지는 '← 홈' 링크 -->
  <rect width="1240" height="800" fill="#ffffff"/>

  <!-- ===== 헤더 ===== -->
  <text x="40" y="42" font-size="22" fill="#111827" font-weight="bold">BitStat2 Live — 홈 UI 재설계 (최종)</text>
  <text x="40" y="64" font-size="12" fill="#6b7280">코드학습 트랙 랜딩의 구조(왼쪽 와이어프레임)와 커리큘럼 커버리지(오른쪽) · 2026-07-06 · r2bit.com/BitStat2-quarto</text>
  <line x1="40" y1="76" x2="1200" y2="76" stroke="#e5e7eb" stroke-width="1"/>

  <!-- ===== 왼쪽: 와이어프레임 (navbar 없음 — 히어로가 첫 화면) ===== -->
  <rect x="40" y="92" width="440" height="550" fill="none" stroke="#9ca3af" stroke-width="1"/>

  <!-- 히어로 -->
  <text x="60" y="124" font-size="9" fill="#2563eb" letter-spacing="2" font-weight="bold">BITSTAT2 LIVE</text>
  <text x="60" y="150" font-size="19" fill="#111827" font-weight="bold">코드를 직접 고쳐 실행하며</text>
  <text x="60" y="172" font-size="19" fill="#111827" font-weight="bold">배우는 통계</text>
  <text x="60" y="194" font-size="10.5" fill="#6b7280">브라우저에서 R 편집·실행 — 슬라이더 반응형 — 즉시 자동 채점</text>
  <text x="60" y="210" font-size="8.5" fill="#9ca3af">webR · 설치 불필요 · 짝 사이트: BitStat2 앱(shinylive)</text>
  <rect x="60" y="224" width="158" height="26" rx="6" fill="#2563eb"/>
  <text x="139" y="241" font-size="10" fill="#ffffff" text-anchor="middle">중심극한정리 실습 시작 →</text>
  <rect x="228" y="224" width="96" height="26" rx="6" fill="none" stroke="#e5e7eb"/>
  <text x="276" y="241" font-size="10" fill="#111827" text-anchor="middle">커리큘럼 보기</text>
  <text x="60" y="270" font-size="8.5" fill="#6b7280">23개 토픽 중 1개 라이브</text>
  <line x1="60" y1="276" x2="460" y2="276" stroke="#e5e7eb" stroke-width="2"/>
  <line x1="60" y1="276" x2="77" y2="276" stroke="#2563eb" stroke-width="2"/>

  <!-- 학습 방식 3열 -->
  <line x1="40" y1="292" x2="480" y2="292" stroke="#e5e7eb" stroke-width="1"/>
  <text x="60" y="316" font-size="10.5" fill="#111827" font-weight="bold">편집형 R 셀</text>
  <text x="60" y="330" font-size="8.5" fill="#6b7280">값을 바꿔 Run Code</text>
  <text x="205" y="316" font-size="10.5" fill="#111827" font-weight="bold">반응형 시각화</text>
  <text x="205" y="330" font-size="8.5" fill="#6b7280">OJS 슬라이더 × webR</text>
  <text x="350" y="316" font-size="10.5" fill="#111827" font-weight="bold">자동 채점</text>
  <text x="350" y="330" font-size="8.5" fill="#6b7280">check 셀 즉시 피드백</text>
  <line x1="40" y1="346" x2="480" y2="346" stroke="#e5e7eb" stroke-width="1"/>

  <!-- 커리큘럼 그리드 -->
  <text x="60" y="372" font-size="12" fill="#111827" font-weight="bold">커리큘럼</text>
  <text x="128" y="372" font-size="8.5" fill="#9ca3af">● 라이브 · ○ 준비 중</text>
  <g fill="none" stroke="#e5e7eb">
    <rect x="60"  y="384" width="126" height="60" rx="6"/>
    <rect x="197" y="384" width="126" height="60" rx="6"/>
    <rect x="334" y="384" width="126" height="60" rx="6"/>
    <rect x="60"  y="454" width="126" height="60" rx="6"/>
    <rect x="197" y="454" width="126" height="60" rx="6"/>
    <rect x="334" y="454" width="126" height="60" rx="6"/>
    <rect x="60"  y="524" width="126" height="60" rx="6"/>
  </g>
  <g font-size="9.5" fill="#111827" font-weight="bold">
    <text x="72" y="406">01 데이터</text>
    <text x="209" y="406">02 EDA</text>
    <text x="346" y="406">03 시각화</text>
    <text x="72" y="476">04 통계 검정</text>
    <text x="209" y="476">05 추론</text>
    <text x="346" y="476">06 회귀분석</text>
    <text x="72" y="546">07 통계이론</text>
  </g>
  <g font-size="8.5" fill="#9ca3af">
    <text x="72" y="422">○○○○</text>
    <text x="209" y="422">○○○○</text>
    <text x="346" y="422">○○</text>
    <text x="72" y="492">○○○○○</text>
    <text x="209" y="492"><tspan fill="#2563eb" font-weight="bold">●</tspan>○ 중심극한정리 <tspan fill="#2563eb" font-weight="bold">LIVE</tspan></text>
    <text x="346" y="492">○○</text>
    <text x="72" y="562">○○○○</text>
  </g>

  <!-- 노트 -->
  <line x1="40" y1="596" x2="480" y2="596" stroke="#e5e7eb" stroke-width="1"/>
  <text x="60" y="618" font-size="8.5" fill="#9ca3af">webR 첫 로드 안내 · 콘텐츠 원본 BitStat2 링크</text>

  <!-- ===== 주석 (leader line) ===== -->
  <g font-size="10" fill="#6b7280" font-style="italic">
    <line x1="484" y1="96" x2="524" y2="96" stroke="#d1d5db" stroke-width="1"/>
    <text x="530" y="93">상단 메뉴 없음(최종 결정) —</text>
    <text x="530" y="106">홈이 곧 내비게이션. 콘텐츠</text>
    <text x="530" y="119">페이지는 '← 홈' 링크 하나만</text>

    <line x1="484" y1="158" x2="524" y2="158" stroke="#d1d5db" stroke-width="1"/>
    <text x="530" y="155">히어로 — 가치제안 한 문장,</text>
    <text x="530" y="168">근거는 메타 한 줄로 격하</text>

    <line x1="484" y1="237" x2="524" y2="237" stroke="#d1d5db" stroke-width="1"/>
    <text x="530" y="234">1차 CTA는 유일한 라이브</text>
    <text x="530" y="247">토픽으로 직결 — 막다른 길 없음</text>

    <line x1="484" y1="276" x2="524" y2="276" stroke="#d1d5db" stroke-width="1"/>
    <text x="530" y="279">진행률 = 2px 헤어라인 하나</text>

    <line x1="484" y1="319" x2="524" y2="319" stroke="#d1d5db" stroke-width="1"/>
    <text x="530" y="316">학습 방식 3요소 =</text>
    <text x="530" y="329">앱 사이트와의 차별점 선언</text>

    <line x1="484" y1="484" x2="524" y2="484" stroke="#d1d5db" stroke-width="1"/>
    <text x="530" y="475">챕터 카드 7개 — 전체 지도를</text>
    <text x="530" y="488">처음부터 공개, 상태는 ●/○</text>
    <text x="530" y="501">기호+배지로 병기(색 단독 금지)</text>
  </g>

  <!-- ===== 오른쪽: 커버리지 도트 차트 ===== -->
  <text x="720" y="112" font-size="14" fill="#111827" font-weight="bold">커리큘럼 커버리지</text>
  <text x="720" y="130" font-size="10" fill="#6b7280">토픽 23개 — 라이브 1 · 이식 대기 22 · 소스: BitStat2(shinylive) 모듈</text>

  <g font-size="11" fill="#111827">
    <text x="720" y="178"><tspan fill="#9ca3af">01</tspan>  데이터</text>
    <text x="720" y="238"><tspan fill="#9ca3af">02</tspan>  탐색적 데이터 분석</text>
    <text x="720" y="298"><tspan fill="#9ca3af">03</tspan>  시각화</text>
    <text x="720" y="358"><tspan fill="#9ca3af">04</tspan>  통계 검정</text>
    <text x="720" y="418"><tspan fill="#9ca3af">05</tspan>  추론</text>
    <text x="720" y="478"><tspan fill="#9ca3af">06</tspan>  회귀분석</text>
    <text x="720" y="538"><tspan fill="#9ca3af">07</tspan>  통계이론</text>
  </g>

  <g fill="#ffffff" stroke="#9ca3af" stroke-width="1.2">
    <circle cx="960" cy="174" r="5"/><circle cx="982" cy="174" r="5"/><circle cx="1004" cy="174" r="5"/><circle cx="1026" cy="174" r="5"/>
    <circle cx="960" cy="234" r="5"/><circle cx="982" cy="234" r="5"/><circle cx="1004" cy="234" r="5"/><circle cx="1026" cy="234" r="5"/>
    <circle cx="960" cy="294" r="5"/><circle cx="982" cy="294" r="5"/>
    <circle cx="960" cy="354" r="5"/><circle cx="982" cy="354" r="5"/><circle cx="1004" cy="354" r="5"/><circle cx="1026" cy="354" r="5"/><circle cx="1048" cy="354" r="5"/>
    <circle cx="982" cy="414" r="5"/>
    <circle cx="960" cy="474" r="5"/><circle cx="982" cy="474" r="5"/>
    <circle cx="960" cy="534" r="5"/><circle cx="982" cy="534" r="5"/><circle cx="1004" cy="534" r="5"/><circle cx="1026" cy="534" r="5"/>
  </g>
  <circle cx="960" cy="414" r="5.5" fill="#2563eb"/>
  <line x1="960" y1="422" x2="960" y2="436" stroke="#d1d5db" stroke-width="1"/>
  <text x="960" y="450" font-size="9.5" fill="#2563eb" text-anchor="middle" font-weight="bold">중심극한정리 — LIVE</text>
  <text x="960" y="463" font-size="8.5" fill="#6b7280" text-anchor="middle">반응형 CLT 실습 + 표준오차 채점</text>

  <g font-size="10" fill="#9ca3af" text-anchor="end">
    <text x="1190" y="178">0 / 4</text>
    <text x="1190" y="238">0 / 4</text>
    <text x="1190" y="298">0 / 2</text>
    <text x="1190" y="358">0 / 5</text>
    <text x="1190" y="418" fill="#2563eb" font-weight="bold">1 / 2</text>
    <text x="1190" y="478">0 / 2</text>
    <text x="1190" y="538">0 / 4</text>
  </g>

  <line x1="720" y1="560" x2="1190" y2="560" stroke="#e5e7eb" stroke-width="1"/>
  <text x="720" y="582" font-size="10" fill="#6b7280">계</text>
  <text x="1190" y="582" font-size="10" fill="#111827" text-anchor="end" font-weight="bold">1 / 23</text>
  <text x="720" y="606" font-size="9.5" fill="#9ca3af"><tspan fill="#2563eb" font-weight="bold">●</tspan> 라이브(실습 가능)&#160;&#160;○ 준비 중(앱 사이트에서 제공)</text>

  <!-- ===== 푸터: 설계 원칙 ===== -->
  <line x1="40" y1="712" x2="1200" y2="712" stroke="#e5e7eb" stroke-width="1"/>
  <text x="40" y="736" font-size="10.5" fill="#6b7280">설계 원칙 — 크롬 제거(navbar 없음: 홈=내비게이션) · 잉크 최소(헤어라인 1px·여백이 구획을 대신) · 단일 액센트 #2563EB(팔레트 검증 통과) · 상태는 색+기호(●/○)+텍스트(LIVE) 삼중 병기 · 본문 우선 타이포그래피</text>
  <text x="40" y="754" font-size="10.5" fill="#6b7280">구현 — index.qmd 원 HTML + assets/home.css(.bs- 스코프) · webR 셀 없음(홈 즉시 로드) · 배포 r2bit.com/BitStat2-quarto (GitHub Pages, main:/docs) · 기술문서: 2026-07-06_live_홈UI_재설계.md</text>
</svg>
